<svg width="86" height="86" viewBox="0 0 86 86" fill="none" xmlns="http://www.w3.org/2000/svg">
<path d="M71.6667 39.4131H78.8333C78.8333 21.0306 64.9551 7.16669 46.5475 7.16669V14.3334C61.103 14.3334 71.6667 24.8791 71.6667 39.4131Z" fill="black"/>
<path d="M46.5833 28.6666C54.1191 28.6666 57.3333 31.8809 57.3333 39.4166H64.5C64.5 27.8604 58.1396 21.5 46.5833 21.5V28.6666ZM58.8455 48.1707C58.1573 47.5441 57.2524 47.2097 56.3221 47.2385C55.3918 47.2672 54.5092 47.6568 53.8611 48.3248L45.2861 57.1434C43.2221 56.7492 39.0726 55.4557 34.8013 51.1951C30.53 46.9202 29.2364 42.7599 28.853 40.7102L37.6644 32.1317C38.3324 31.4836 38.722 30.601 38.7507 29.6707C38.7795 28.7404 38.4451 27.8355 37.8185 27.1473L24.5781 12.5882C23.9511 11.8979 23.0798 11.4792 22.1491 11.421C21.2184 11.3628 20.3017 11.6697 19.5936 12.2765L11.8178 18.9451C11.1983 19.5668 10.8285 20.3943 10.7786 21.2706C10.7249 22.1665 9.70006 43.387 26.1547 59.8488C40.5096 74.2001 58.4907 75.25 63.4429 75.25C64.1667 75.25 64.6111 75.2285 64.7293 75.2213C65.6048 75.1696 66.431 74.7986 67.0513 74.1786L73.7163 66.3992C74.3236 65.6915 74.6311 64.7751 74.5735 63.8444C74.516 62.9137 74.0979 62.0422 73.4081 61.4147L58.8455 48.1707Z" fill="black"/>
</svg>
