<svg width="86" height="86" viewBox="0 0 86 86" fill="black" xmlns="http://www.w3.org/2000/svg">
<path d="M43 41.2084C40.6241 41.2084 38.3455 40.2645 36.6655 38.5845C34.9854 36.9045 34.0416 34.6259 34.0416 32.25C34.0416 29.8741 34.9854 27.5955 36.6655 25.9155C38.3455 24.2355 40.6241 23.2917 43 23.2917C45.3759 23.2917 47.6544 24.2355 49.3345 25.9155C51.0145 27.5955 51.9583 29.8741 51.9583 32.25C51.9583 33.4264 51.7266 34.5914 51.2764 35.6782C50.8262 36.7651 50.1663 37.7527 49.3345 38.5845C48.5026 39.4164 47.515 40.0762 46.4282 40.5264C45.3413 40.9766 44.1764 41.2084 43 41.2084ZM43 7.16669C36.3474 7.16669 29.9674 9.80939 25.2634 14.5134C20.5593 19.2175 17.9166 25.5975 17.9166 32.25C17.9166 51.0625 43 78.8334 43 78.8334C43 78.8334 68.0833 51.0625 68.0833 32.25C68.0833 25.5975 65.4406 19.2175 60.7366 14.5134C56.0325 9.80939 49.6525 7.16669 43 7.16669Z" fill="black"/>
</svg>
