<svg width="86" height="86" viewBox="0 0 86 86" fill="none" xmlns="http://www.w3.org/2000/svg">
<path d="M60.9167 11.9683C66.364 15.1134 70.8876 19.6369 74.0326 25.0843C77.1777 30.5317 78.8334 36.711 78.8333 43.0011C78.8333 49.2912 77.1775 55.4705 74.0324 60.9179C70.8873 66.3652 66.3637 70.8887 60.9163 74.0337C55.4688 77.1787 49.2895 78.8343 42.9994 78.8342C36.7093 78.8341 30.5301 77.1783 25.0827 74.0331C19.6354 70.888 15.1119 66.3643 11.967 60.9169C8.82208 55.4694 7.1665 49.2901 7.16666 43L7.18457 41.839C7.38525 35.6505 9.18604 29.6197 12.4114 24.3344C15.6367 19.0491 20.1765 14.6897 25.5882 11.6812C30.9999 8.67279 37.0988 7.11792 43.2903 7.16824C49.4818 7.21855 55.5546 8.87233 60.9167 11.9683ZM43 21.5C42.0496 21.5 41.1382 21.8775 40.4662 22.5495C39.7942 23.2215 39.4167 24.133 39.4167 25.0833V43C39.4167 43.9504 39.7942 44.8618 40.4662 45.5338C41.1382 46.2058 42.0496 46.5833 43 46.5833H55.5417C56.492 46.5833 57.4035 46.2058 58.0755 45.5338C58.7475 44.8618 59.125 43.9504 59.125 43C59.125 42.0496 58.7475 41.1382 58.0755 40.4662C57.4035 39.7942 56.492 39.4167 55.5417 39.4167H46.5833V25.0833C46.5832 24.2057 46.261 23.3585 45.6778 22.7027C45.0945 22.0468 44.2909 21.6278 43.4192 21.5251L43 21.5Z" fill="black"/>
</svg>
