<svg width="98" height="98" viewBox="0 0 98 98" fill="none" xmlns="http://www.w3.org/2000/svg">
<path fill-rule="evenodd" clip-rule="evenodd" d="M73.057 2.34854C73.4956 1.56801 74.2263 0.993677 75.0883 0.751896C75.9504 0.510114 76.8732 0.620687 77.6537 1.05929C78.4343 1.49789 79.0086 2.22859 79.2504 3.09065C79.4921 3.95271 79.3816 4.87551 78.943 5.65604L52.87 52.024L65.056 73.6915C66.594 70.2024 69.268 67.3369 72.6425 65.5616C76.0171 63.7863 79.8932 63.2058 83.6398 63.9147C87.3863 64.6237 90.7825 66.5802 93.2751 69.4658C95.7676 72.3513 97.2098 75.9957 97.3667 79.8055C97.5236 83.6153 96.3859 87.366 94.1389 90.4466C91.892 93.5273 88.6682 95.7564 84.9926 96.771C81.3171 97.7855 77.4063 97.5257 73.8972 96.0338C70.3882 94.5419 67.4876 91.9059 65.668 88.555L49 58.909L32.332 88.555C30.5125 91.9046 27.6126 94.5394 24.1045 96.0305C20.5964 97.5216 16.6868 97.781 13.0125 96.7665C9.3381 95.7521 6.11545 93.5235 3.86933 90.4437C1.62321 87.364 0.485955 83.6145 0.642773 79.8059C0.799591 75.9973 2.24124 72.354 4.73295 69.4693C7.22465 66.5846 10.6196 64.6285 14.3649 63.9196C18.1102 63.2106 21.9852 63.7906 25.3589 65.565C28.7325 67.3394 31.406 70.2038 32.944 73.6915L45.13 52.024L19.057 5.65604C18.6184 4.87551 18.5078 3.95271 18.7496 3.09065C18.9914 2.22859 19.5657 1.49789 20.3462 1.05929C21.1268 0.620687 22.0496 0.510115 22.9116 0.751896C23.7737 0.993677 24.5044 1.56801 24.943 2.34854L49 45.139L73.057 2.34854ZM17.5 90.625C19.2833 90.6258 21.0352 90.1556 22.5785 89.2619C24.1217 88.3682 25.4016 87.0827 26.2885 85.5355L26.3785 85.3735C27.4468 83.4281 27.8462 81.1856 27.5154 78.991C27.1846 76.7963 26.1419 74.7712 24.5477 73.2271C22.9534 71.683 20.896 70.7055 18.6919 70.445C16.4878 70.1845 14.2592 70.6555 12.3489 71.7854C10.4386 72.9153 8.95255 74.6415 8.11926 76.6986C7.28597 78.7556 7.15167 81.0295 7.737 83.1703C8.32234 85.3112 9.5949 87.2004 11.3589 88.5473C13.1229 89.8943 15.2806 90.6243 17.5 90.625ZM80.5 90.625C78.7166 90.6258 76.9647 90.1556 75.4215 89.2619C73.8782 88.3682 72.5984 87.0827 71.7115 85.5355L71.6215 85.3735C70.5532 83.4281 70.1537 81.1856 70.4845 78.991C70.8153 76.7963 71.858 74.7712 73.4523 73.2271C75.0465 71.683 77.104 70.7055 79.308 70.445C81.5121 70.1845 83.7408 70.6555 85.651 71.7854C87.5613 72.9153 89.0474 74.6415 89.8807 76.6986C90.714 78.7556 90.8483 81.0295 90.263 83.1703C89.6776 85.3112 88.4051 87.2004 86.6411 88.5473C84.8771 89.8943 82.7194 90.6243 80.5 90.625Z" fill="#D5A353"/>
</svg>
